<svg width="4653" height="3640" viewBox="0 0 4653 3640" fill="none" xmlns="http://www.w3.org/2000/svg">
<path d="M1743.34 2529.74C1491.51 2712.91 1359.59 2839.2 1301.59 3117.2C1274.05 3249.2 1214.59 3524.54 914.59 3622.7C1110.92 3660.55 1399.09 3539.2 1500.09 3491.7C2028.79 3243.06 2000.34 3240.74 2211.84 2529.74M1358.84 2961.74C920.46 2773.66 386.092 2364.24 399.09 1418.7C416.59 1334.2 398.391 1125.3 185.591 965.704C-80.4095 766.204 34.8386 -50.855 34.8392 14.7365C34.8412 230.238 705.59 499.704 672.09 706.204C789.59 610.871 1156.49 429.504 1684.09 466.704C1263.84 482.651 1423.99 983.203 811.59 1079.2C678.59 1136.87 566.79 1265.54 811.59 1510.74C1010.27 1709.74 1301.59 1752.24 1301.59 1752.24C1301.59 1752.24 1909.84 1781.24 2789.84 1334.74C3056.96 1199.2 3177.94 1000.04 3604.34 835.238C3884.34 727.021 4414.99 496.104 4574.59 639.704C4734.19 783.304 4574.59 965.704 4471.84 1208.74C3810.31 2773.48 3266.84 2727.96 2789.84 2911.24L2346.84 3041.74C2228.15 3074.1 2106.61 3106.36 2016.72 3114.74" stroke="black" stroke-width="20"/>
<path d="M2336.34 3046.74C2232.51 3252.4 2071.24 3517.14 1826.84 3614.74C2138.01 3525.74 2714.24 3386.24 2789.84 2906.24" stroke="black" stroke-width="20"/>
<path d="M4615.34 687.738C4271.01 871.238 3672.84 1686.74 3400.34 1929.24C3027.47 2261.06 800.34 2908.74 476.34 2018.24" stroke="black" stroke-width="20"/>
</svg>
